<svg xmlns="http://www.w3.org/2000/svg" viewBox="0 0 64 64" fill="none">
  <defs>
    <linearGradient id="bg" x1="10" y1="8" x2="54" y2="56" gradientUnits="userSpaceOnUse">
      <stop stop-color="#0a0a0f"/>
      <stop offset="1" stop-color="#13131a"/>
    </linearGradient>
    <linearGradient id="accent" x1="16" y1="12" x2="48" y2="52" gradientUnits="userSpaceOnUse">
      <stop stop-color="#00f5ff"/>
      <stop offset="1" stop-color="#ff3366"/>
    </linearGradient>
    <filter id="glow" x="-40%" y="-40%" width="180%" height="180%">
      <feGaussianBlur stdDeviation="1.6" result="blur"/>
      <feMerge>
        <feMergeNode in="blur"/>
        <feMergeNode in="SourceGraphic"/>
      </feMerge>
    </filter>
  </defs>

  <rect x="4" y="4" width="56" height="56" rx="12" fill="url(#bg)" stroke="#00f5ff" stroke-opacity="0.18"/>
  <path d="M32 10L49 17v12c0 11.5-7 20.8-17 27-10-6.2-17-15.5-17-27V17l17-7Z" fill="#111827" stroke="url(#accent)" stroke-width="2.2" filter="url(#glow)"/>
  <path d="M26 30.5 30.3 34.8 38 27" stroke="#e0ffff" stroke-width="3.2" stroke-linecap="round" stroke-linejoin="round"/>
  <path d="M21 20.5h22M19 24.5h26M19 39.5h26" stroke="#00f5ff" stroke-opacity="0.45" stroke-width="1.3" stroke-linecap="round"/>
  <path d="M32 16.5v6.2M32 41.3v6.2" stroke="#ff3366" stroke-width="1.6" stroke-linecap="round" stroke-opacity="0.9"/>
  <circle cx="32" cy="32" r="21" stroke="#00f5ff" stroke-opacity="0.12" stroke-width="1.4"/>
</svg>
